<svg xmlns="http://www.w3.org/2000/svg" xmlns:xlink="http://www.w3.org/1999/xlink" version="1.1" id="Livello_1" x="0px" y="0px" enable-background="new 0 0 595.3 258.6" xml:space="preserve" viewBox="64.79 88.96 457.34 97.56">
<g>
	<text transform="matrix(1 0 0 1 64.7898 153.3965)" fill="#181818" font-family="'Montserrat-Regular'" font-size="59.732px">D</text>
	<text transform="matrix(1 0 0 1 112.2674 153.3965)" fill="#181818" font-family="'Montserrat-Regular'" font-size="59.732px">A</text>
	<text transform="matrix(1 0 0 1 157.5369 153.3965)" fill="#181818" font-family="'Montserrat-Regular'" font-size="59.732px">Y</text>
	<text transform="matrix(1 0 0 1 196.7742 153.3965)" fill="#181818" font-family="'Montserrat-Regular'" font-size="59.732px">O</text>
	<text transform="matrix(1 0 0 1 246.3435 153.3965)" fill="#181818" font-family="'Montserrat-Regular'" font-size="59.732px">F</text>
	<text transform="matrix(1 0 0 1 281.8767 153.3965)" fill="#181818" font-family="'Montserrat-Regular'" font-size="59.732px">F</text>
	<text transform="matrix(1 0 0 1 317.4109 153.3965)" fill="#181818" font-family="'Montserrat-Regular'" font-size="59.732px">I</text>
	<text transform="matrix(1 0 0 1 336.6433 153.3965)" fill="#181818" font-family="'Montserrat-Regular'" font-size="59.732px">C</text>
	<text transform="matrix(1 0 0 1 379.4637 153.3965)" fill="#181818" font-family="'Montserrat-Regular'" font-size="59.732px">E</text>
</g>
<g>
	<g>
		<g>
			<g>
				<path fill="#181818" d="M517.2,100.5L517.2,100.5l-93.4-11.5l0,0c-1.8-0.2-3.7,0.4-4.9,2c-1.1,1.4-1.3,3.1-0.9,4.7l0,0l0,0.1      c0.1,0.3,0.2,0.6,0.3,0.8l34.8,86.3l0,0c0.3,1,0.9,1.8,1.7,2.5c2.3,1.8,5.6,1.4,7.4-0.9l58.8-75.4c1.8-2.3,1.4-5.6-0.9-7.4      C519.2,100.9,518.2,100.5,517.2,100.5z"/>
			</g>
		</g>
	</g>
</g>
<g>
	<g>
		<linearGradient id="SVGID_1_" gradientUnits="userSpaceOnUse" x1="435.1269" y1="133.3857" x2="470.3417" y2="133.3857">
			<stop offset="0" style="stop-color:#009FE3"/>
			<stop offset="4.166079e-02" style="stop-color:#07A3DA"/>
			<stop offset="0.1501" style="stop-color:#13ABC9"/>
			<stop offset="0.285" style="stop-color:#1CB1BE"/>
			<stop offset="0.4744" style="stop-color:#22B4B7"/>
			<stop offset="1" style="stop-color:#23B5B5"/>
		</linearGradient>
		<path fill="url(#SVGID_1_)" d="M470.3,148.5v8.1h-35.2v-3.4c10.7-13.4,26.4-13.4,26.4-25.1c0-5.1-4.1-9.2-9.1-9.2    c-4,0-8.8,2.9-8.9,9.1v0.5h-8.4v-1c0-9.9,8.1-17.1,17.5-17.1c9.3,0,17.7,7.4,17.7,17.2c0,14.5-15.4,18.9-18.5,21.1H470.3z"/>
	</g>
	<g>
		
			<linearGradient id="SVGID_00000047035880378413726590000001048612830580336288_" gradientUnits="userSpaceOnUse" x1="471.4404" y1="133.6455" x2="512.2421" y2="133.6455">
			<stop offset="0" style="stop-color:#009FE3"/>
			<stop offset="4.166079e-02" style="stop-color:#07A3DA"/>
			<stop offset="0.1501" style="stop-color:#13ABC9"/>
			<stop offset="0.285" style="stop-color:#1CB1BE"/>
			<stop offset="0.4744" style="stop-color:#22B4B7"/>
			<stop offset="1" style="stop-color:#23B5B5"/>
		</linearGradient>
		<path fill="url(#SVGID_00000047035880378413726590000001048612830580336288_)" d="M512.2,138.8v7.8h-6.4v9.9h-9v-9.9h-23.7    l-1.7-4.2l27.3-31.7h7.1v28.1H512.2z M496.8,138.8v-14.1l-12.1,14.1H496.8z"/>
	</g>
</g>
</svg>